<svg width="130" height="130" viewBox="0 0 130 130" fill="none" xmlns="http://www.w3.org/2000/svg">
<g filter="url(#filter0_d_51_47)">
<circle cx="65" cy="61" r="61" fill="#FFFEFE"/>
</g>
<path d="M104 52.4834C104 96.9 65 110.333 65 110.333C65 110.333 26 96.9 26 52.4834C26 47.0667 26.4333 42.5167 26.8667 38.8334C27.5167 33.4167 31.2 29.0834 36.4 27.7834C43.1167 25.8334 53.7333 23.6667 65 23.6667C76.2667 23.6667 86.8833 25.8334 93.8167 27.7834C99.0167 29.0834 102.7 33.6334 103.35 38.8334C103.567 42.5167 104 47.2833 104 52.4834Z" fill="#5D4037"/>
<path d="M65 30.1667C75.6167 30.1667 85.5833 32.3334 92.0833 34.0667C94.6833 34.7167 96.4167 36.8834 96.85 39.7C97.2833 43.8167 97.5 48.15 97.5 52.4834C97.5 86.2833 72.5833 99.9333 65 103.183C57.4167 99.7167 32.5 86.0667 32.5 52.4834C32.5 48.15 32.7167 43.8167 33.15 39.7C33.3667 36.8834 35.3167 34.7167 37.9167 34.0667C44.4167 32.3334 54.3833 30.1667 65 30.1667ZM65 23.6667C53.7333 23.6667 43.1167 25.8334 36.1833 27.7834C31.2 29.0834 27.3 33.6334 26.8667 38.8334C26.4333 42.5167 26 47.2833 26 52.4834C26 96.9 65 110.333 65 110.333C65 110.333 104 96.9 104 52.4834C104 47.0667 103.567 42.5167 103.133 38.8334C102.483 33.4167 98.8 29.0834 93.6 27.7834C86.8833 25.8334 76.2667 23.6667 65 23.6667Z" fill="#4CAF50"/>
<path d="M62.8335 75.6667H67.1668V93H62.8335V75.6667Z" fill="#DCEDC8"/>
<path d="M65 36.6667C65 36.6667 52 47.5 52 64.8334C52 76.1 59.15 83.25 62.8333 86.5L65 80L67.1667 86.5C70.85 83.25 78 76.1 78 64.8334C78 47.5 65 36.6667 65 36.6667Z" fill="#4CAF50"/>
<path d="M65 36.6667C65 36.6667 52 47.5 52 64.8334C52 76.1 59.15 83.25 62.8333 86.5L65 80V36.6667Z" fill="#81C784"/>
<defs>
<filter id="filter0_d_51_47" x="0" y="0" width="130" height="130" filterUnits="userSpaceOnUse" color-interpolation-filters="sRGB">
<feFlood flood-opacity="0" result="BackgroundImageFix"/>
<feColorMatrix in="SourceAlpha" type="matrix" values="0 0 0 0 0 0 0 0 0 0 0 0 0 0 0 0 0 0 127 0" result="hardAlpha"/>
<feOffset dy="4"/>
<feGaussianBlur stdDeviation="2"/>
<feComposite in2="hardAlpha" operator="out"/>
<feColorMatrix type="matrix" values="0 0 0 0 0 0 0 0 0 0 0 0 0 0 0 0 0 0 0.25 0"/>
<feBlend mode="normal" in2="BackgroundImageFix" result="effect1_dropShadow_51_47"/>
<feBlend mode="normal" in="SourceGraphic" in2="effect1_dropShadow_51_47" result="shape"/>
</filter>
</defs>
</svg>
