<svg width="130" height="130" viewBox="0 0 130 130" fill="none" xmlns="http://www.w3.org/2000/svg">
<g filter="url(#filter0_d_51_45)">
<circle cx="65" cy="61" r="61" fill="#FFFEFE"/>
</g>
<path d="M51.2753 53.431L40.6435 59.3135C40.2448 59.5324 40 59.9397 40 60.3795V72.151C40 72.5909 40.2448 72.996 40.6435 73.217L51.2775 79.1039C51.674 79.3227 52.1658 79.3227 52.5623 79.1039L63.1942 73.217C63.5885 72.996 63.8333 72.5909 63.8333 72.151V60.3795C63.8333 59.9397 63.5885 59.5345 63.1898 59.3135L52.5602 53.431C52.3608 53.3205 52.1377 53.2664 51.9167 53.2664C51.6935 53.2664 51.4725 53.3205 51.2732 53.431H51.2753ZM105.977 64.0282L104.205 65.0075C104.138 65.0444 104.099 65.1115 104.099 65.1852V67.1482C104.099 67.2219 104.14 67.289 104.205 67.3259L105.977 68.3074C106.044 68.3442 106.125 68.3442 106.192 68.3074L107.964 67.3259C108.029 67.289 108.07 67.2219 108.07 67.1482V65.1852C108.07 65.1115 108.029 65.0444 107.962 65.0075L106.189 64.0282C106.157 64.0087 106.12 64 106.083 64C106.047 64 106.01 64.0087 105.977 64.0282Z" fill="#388E3C"/>
<path d="M91.4603 40.9553L86.2842 38.0672C86.1217 37.9762 85.9223 37.9783 85.762 38.0737C85.6017 38.169 85.502 38.3402 85.502 38.5265L85.4998 55.9725L80.7267 53.3313C80.5273 53.2208 80.3042 53.1667 80.0832 53.1667C79.8622 53.1667 79.639 53.2208 79.4397 53.3313H79.4418L68.81 59.2138C68.4113 59.4327 68.1665 59.84 68.1665 60.2777V72.0492C68.1665 72.489 68.4113 72.8942 68.81 73.1152L79.444 79.002C79.8405 79.2208 80.3323 79.2208 80.7288 79.002L91.3607 73.1152C91.755 72.8963 91.9998 72.489 91.9998 72.0492V41.874C91.9998 41.4927 91.7918 41.1417 91.4603 40.9553ZM85.2095 69.3257L80.3778 72.0015C80.198 72.1012 79.9748 72.1012 79.795 72.0015L74.9612 69.3257C74.777 69.226 74.6665 69.0396 74.6665 68.8403V63.4887C74.6665 63.2893 74.777 63.1052 74.959 63.0033L79.7928 60.3297H79.7907C79.8817 60.2798 79.9813 60.256 80.0832 60.256C80.185 60.256 80.2847 60.282 80.3757 60.3297L85.2073 63.0033C85.3893 63.1052 85.4998 63.2915 85.4998 63.4908V68.8425C85.4998 69.0397 85.3893 69.226 85.2095 69.3257Z" fill="#37474F"/>
<path d="M51.2753 53.431L40 72.151C40 72.5909 40.2448 72.996 40.6435 73.217L51.2775 79.1039C51.674 79.3227 52.1658 79.3227 52.5623 79.1039L63.8333 60.3795C63.8333 59.9397 63.5885 59.5345 63.1898 59.3135L52.5602 53.431C52.3608 53.3205 52.1377 53.2664 51.9167 53.2664C51.6935 53.2664 51.4725 53.3205 51.2732 53.431" fill="#2E7D32"/>
<path d="M51.2753 53.431L40.6435 59.3135C40.2448 59.5324 40 59.9397 40 60.3795L51.2753 79.1039C51.6718 79.3227 52.1637 79.3227 52.5602 79.1039L63.192 73.217C63.5885 72.996 63.8333 72.5909 63.8333 72.151L52.5602 53.431C52.3608 53.3205 52.1377 53.2664 51.9167 53.2664C51.6935 53.2664 51.4725 53.3205 51.2732 53.431" fill="#4CAF50"/>
<path d="M117.356 59.2139L106.727 53.3314C106.528 53.2209 106.304 53.1667 106.083 53.1667C105.862 53.1667 105.639 53.2209 105.44 53.3314H105.442L94.8102 59.2139C94.4137 59.4327 94.1667 59.8487 94.1667 60.3037V72.0275C94.1667 72.4804 94.4137 72.8985 94.8102 73.1174L105.444 79.0042C105.843 79.2252 106.33 79.2252 106.729 79.0042L111.632 76.2894C112.081 76.0402 112.078 75.3967 111.628 75.1497L100.959 69.3279C100.779 69.226 100.667 69.0375 100.667 68.8339V63.4909C100.667 63.2915 100.775 63.1074 100.948 63.012L105.791 60.334H105.789C105.88 60.2842 105.979 60.2604 106.081 60.2604C106.183 60.2604 106.283 60.2864 106.374 60.334L111.216 63.0142C111.39 63.1095 111.498 63.2937 111.498 63.493V67.8524C111.498 68.0387 111.598 68.212 111.76 68.3052C111.923 68.3962 112.122 68.3962 112.284 68.303L117.48 65.2849C117.801 65.0985 118 64.754 118 64.3814V60.308C118 59.8509 117.753 59.4327 117.356 59.2139ZM37.1898 59.2139L26.5602 53.3314C26.3608 53.2209 26.1377 53.1667 25.9167 53.1667C25.6957 53.1667 25.4725 53.2209 25.2732 53.3314H25.2753L14.6435 59.2139C14.247 59.4327 14 59.8487 14 60.3037V76.4779C14 76.6642 14.0997 76.8375 14.2622 76.9307C14.4247 77.0217 14.624 77.0217 14.7865 76.9285L19.9822 73.9104C20.3028 73.724 20.5 73.3795 20.5 73.0069V63.4887C20.5 63.2894 20.6083 63.1052 20.7817 63.0099L25.6242 60.3319C25.7152 60.282 25.8148 60.2582 25.9167 60.2582C26.0185 60.2582 26.1182 60.2842 26.2092 60.3319L31.0517 63.012C31.225 63.1074 31.3333 63.2915 31.3333 63.4909V73.009C31.3333 73.3817 31.5305 73.7262 31.8533 73.9125L37.049 76.9307C37.2115 77.0239 37.4108 77.0239 37.5733 76.9329C37.7337 76.8375 37.8333 76.6642 37.8333 76.4779V60.3059C37.8333 59.8509 37.5863 59.4327 37.1898 59.2139Z" fill="#37474F"/>
<defs>
<filter id="filter0_d_51_45" x="0" y="0" width="130" height="130" filterUnits="userSpaceOnUse" color-interpolation-filters="sRGB">
<feFlood flood-opacity="0" result="BackgroundImageFix"/>
<feColorMatrix in="SourceAlpha" type="matrix" values="0 0 0 0 0 0 0 0 0 0 0 0 0 0 0 0 0 0 127 0" result="hardAlpha"/>
<feOffset dy="4"/>
<feGaussianBlur stdDeviation="2"/>
<feComposite in2="hardAlpha" operator="out"/>
<feColorMatrix type="matrix" values="0 0 0 0 0 0 0 0 0 0 0 0 0 0 0 0 0 0 0.25 0"/>
<feBlend mode="normal" in2="BackgroundImageFix" result="effect1_dropShadow_51_45"/>
<feBlend mode="normal" in="SourceGraphic" in2="effect1_dropShadow_51_45" result="shape"/>
</filter>
</defs>
</svg>
